<svg xmlns="http://www.w3.org/2000/svg">
<!-- PROP: clothes rail, Annalie's.
     local box 310 x 262, origin top left. the pipe runs along y=6,
     uprights drop to the floor at y=258. the room slot owns the
     translate and the tilt, this file owns nothing outside the box.
     drop-in replaceable: keep the box and the pipe line, change
     whatever else you like.

     light comes from upper LEFT, so every garment is lit down its
     left edge and shaded down its right. keep that or the prop
     stops sitting in the room. -->
<defs>
  <linearGradient id="rl-pipe" x1="0" y1="0" x2="0" y2="1">
    <stop offset="0" stop-color="#2f2a36"/><stop offset=".28" stop-color="#b3adb9"/>
    <stop offset=".58" stop-color="#5d5768"/><stop offset="1" stop-color="#211c2a"/>
  </linearGradient>
  <linearGradient id="rl-post" x1="0" y1="0" x2="1" y2="0">
    <stop offset="0" stop-color="#5b5466"/><stop offset=".4" stop-color="#3a3445"/><stop offset="1" stop-color="#211c2a"/>
  </linearGradient>
  <clipPath id="rl-coat-clip"><use href="#rl-coat"/></clipPath>
  <clipPath id="rl-dress-clip"><use href="#rl-dress"/></clipPath>
  <clipPath id="rl-shirt-clip"><use href="#rl-shirt"/></clipPath>
  <clipPath id="rl-jacket-clip"><use href="#rl-jacket"/></clipPath>
</defs>

<rect x="12" y="10" width="9" height="248" fill="url(#rl-post)"/>
<rect x="288" y="10" width="9" height="248" fill="url(#rl-post)"/>
<path d="M-4 252h42v9H-4zM274 252h42v9h-42z" fill="#2a2432"/>
<rect x="0" y="0" width="310" height="12" rx="3" fill="url(#rl-pipe)"/>

<g stroke="#a19cab" stroke-width="2.5" fill="none" stroke-linecap="round" stroke-linejoin="round">
  <path d="M54 26V15c0-5 8-5 8-11a6 6 0 0 0-12 0M54 26 20 52h68z"/>
  <path d="M126 26V15c0-5 8-5 8-11a6 6 0 0 0-12 0M126 26 92 52h68z"/>
  <path d="M198 26V15c0-5 8-5 8-11a6 6 0 0 0-12 0M198 26 164 52h68z"/>
  <path d="M264 26V15c0-5 8-5 8-11a6 6 0 0 0-12 0M264 26 230 52h68z"/>
</g>
<g>
  <path id="rl-coat" d="M42 36 30 42q-7 3-10 13L5 118l14 4 11-39-4 127q28 8 56 0L78 83l11 39 14-4-15-63q-3-10-10-13l-12-6-12 11z" fill="#7d7660" stroke="#3f3a2c" stroke-width="1.6"/>
  <g clip-path="url(#rl-coat-clip)">
    <path d="M66 36 78 42 103 118 89 122 78 83 82 210 67 214 64 80z" fill="#221f16" opacity=".3"/>
    <path d="M30 42 20 55 5 118 12 120 35 56 33 211 26 210z" fill="#e2dcc4" opacity=".18"/>
    <path d="M42 36 54 47 47 76 35 51 41 50 36 42zM66 36 54 47 61 76 73 51 67 50 72 42z" fill="#948b72" stroke="#514b39" stroke-width="1"/>
    <path d="M54 49v162M35 135l12-3M63 132l12 3" fill="none" stroke="#3f3a2c" stroke-width="1.4"/>
    <g fill="#3f3a2c"><circle cx="58" cy="91" r="1.8"/><circle cx="58" cy="113" r="1.8"/><circle cx="58" cy="135" r="1.8"/></g>
    <path d="M37 151l-2 54M72 150l2 55" fill="none" stroke="#2c2921" stroke-opacity=".28" stroke-width="1.6"/>
  </g>
</g>

<g>
  <path id="rl-dress" d="M108 36h8q10 16 20 0h8l5 33q-4 17-9 29l18 124q-32 12-64 0l18-124q-5-12-9-29z" fill="#a04a86" stroke="#4f1f42" stroke-width="1.6"/>
  <g clip-path="url(#rl-dress-clip)">
    <path d="M138 36h6l5 33-9 29 18 124-13 4-15-128 7-31z" fill="#320f29" opacity=".3"/>
    <path d="M108 36h5l-3 33 10 29-17 127-9-3 18-124-9-29z" fill="#ffc6e9" opacity=".16"/>
    <path d="M112 96q14 4 28 0v5q-14 4-28 0z" fill="#64254f"/>
    <path d="M119 110l-9 112M133 110l8 114M126 119v108" fill="none" stroke="#4f1f42" stroke-opacity=".3" stroke-width="1.6"/>
    <path d="M116 37q10 16 20 0" fill="none" stroke="#d183b7" stroke-width="1.6"/>
  </g>
</g>

<g>
  <path id="rl-shirt" d="M184 36 168 43q-6 3-8 10l-10 28 15 6 10-20-2 102q25 6 50 0l-2-102 10 20 15-6-10-28q-2-7-8-10l-16-7q-14 18-28 0z" fill="#3f5f5c" stroke="#223634" stroke-width="1.6"/>
  <g clip-path="url(#rl-shirt-clip)">
    <path d="M212 36 228 43 246 81 231 87 221 67 223 169 212 172z" fill="#0e1d1c" opacity=".33"/>
    <path d="M168 43 160 53 150 81 157 84 177 51 179 170 173 169 175 67z" fill="#c8ece7" opacity=".14"/>
    <path d="M184 37q14 18 28 0M176 164q22 5 44 0" fill="none" stroke="#223634" stroke-width="2"/>
    <path d="M185 67l-2 91M209 70l3 89" fill="none" stroke="#223634" stroke-opacity=".3" stroke-width="1.6"/>
  </g>
</g>

<g>
  <path id="rl-jacket" d="M252 36 238 43q-6 3-8 12l-13 63 13 4 11-39-3 118q26 7 52 0l-3-118 10 39 13-4-12-63q-2-9-8-12l-14-7-12 12z" fill="#5f5769" stroke="#332e3c" stroke-width="1.6"/>
  <g clip-path="url(#rl-jacket-clip)">
    <path d="M276 36 290 43 310 118 297 122 287 83 290 201 277 205z" fill="#1c1823" opacity=".34"/>
    <path d="M238 43 230 55 217 118 224 120 246 51 245 203 238 201 241 83z" fill="#ddd6e8" opacity=".14"/>
    <path d="M252 36 264 48 256 67 246 44zM276 36 264 48 272 67 282 44z" fill="#797082" stroke="#332e3c" stroke-width="1"/>
    <path d="M264 49v151M248 131h10v20h-10zM271 131h10v20h-10z" fill="none" stroke="#332e3c" stroke-width="1.3"/>
    <path d="M279 51v22" stroke="#b7a6bc" stroke-width="1"/>
    <rect x="275" y="70" width="9" height="14" rx="1" fill="#b8508f"/>
  </g>
</g>
</svg>
